  <svg viewBox="0 0 6732 1000" width="{{ .width }}"
      xmlns="http://www.w3.org/2000/svg"
      xmlns:xlink="http://www.w3.org/1999/xlink">
      <style xmlns="http://www.w3.org/2000/svg">
          #text { fill:#171e21; stroke:#fff; }
          @media (prefers-color-scheme: dark) {
              #text { fill:#fff; stroke:#171e21; }
          }
      </style>
      <defs>
          <linearGradient x1="50%" x2="50%" y1="0%" y2="100%">
              <stop offset="0" stop-color="#fff" stop-opacity=".5"/>
              <stop offset="1" stop-opacity=".5"/>
          </linearGradient>
          <path id="a" d="m422.216007 872.213376c2.907359-.901465 5.896782-2.079101 8.968267-3.532908 3.071484-1.453808 6.52202-3.394823 10.351607-5.823046 54.072723-32.833118 99.423367-60.986956 136.051931-84.461516 36.628565-23.474559 65.934022-45.774087 87.916371-66.898585s37.783953-44.176984 47.404813-69.157458 14.43129-55.226441 14.43129-90.737899v-327.497456c0-8.201766-1.048578-14.351788-3.145732-18.450066-2.097155-4.098277-6.495969-7.330263-13.196444-9.695957-14.448223-5.002347-31.022258-10.873593-49.722104-17.613735-18.699846-6.740143-38.360996-13.789024-58.983451-21.146644s-41.171966-14.750412-61.648532-22.178378c-20.476566-7.427965-39.797743-14.574548-57.963531-21.43975-18.165788-6.865201-33.983023-12.939666-47.451706-18.2233963-2.662474-.9535725-5.026658-1.7377947-7.092551-2.3526666-2.065893-.614872-4.039302-1.0734205-5.920228-1.3756457z"/>
      </defs>
      <g fill="none">
          <g>
              <!-- Shield -->
              <path d="m0 585.514848v-374.989818c0-27.845201 5.66574095-48.019125 16.9972229-60.521772 11.3314819-12.502647 28.3775707-23.516108 51.1382665-33.040383 14.1277029-5.739543 34.7776586-13.784135 61.9498686-24.1337744 27.172209-10.3496397 56.421224-21.2721477 87.747043-32.767524 31.325819-11.4953764 60.540899-21.9739793 87.645239-31.4358089s47.652492-16.193711 61.644456-20.19564406c7.096429-1.9765314 14.647583-3.87568486 22.653462-5.69746037s15.836656-2.73266327 23.492329-2.73266327c7.997734 0 15.992755.7452718 23.98506 2.2358154s15.533958 3.55531301 22.624957 6.19430824c13.991964 4.65896686 34.54826 11.78995556 61.668889 21.39296596s56.335708 20.0042354 87.645239 31.203675 60.550401 21.8870988 87.72261 32.0629775c27.17221 10.1758789 47.838454 18.1335899 61.998735 23.8731329 22.413204 9.839217 39.364275 20.931413 50.853214 33.276589 11.488939 12.345177 17.233409 32.440365 17.233409 60.285566v374.989818c0 44.830339-6.660707 84.02702-19.982121 117.590044s-34.703003 64.789776-64.144766 93.680258c-29.441764 28.890482-68.401538 58.564245-116.879322 89.021291-48.477785 30.457046-107.997927 65.152231-178.560428 104.085556-6.292854 3.47522-12.467616 6.028692-18.524285 7.660416-6.056669 1.631725-11.270399 2.447587-15.641191 2.447587-4.023301 0-9.064643-.815862-15.124027-2.447587-6.059383-1.631724-12.232788-4.185196-18.520213-7.660416-70.280164-39.248267-129.652351-74.100923-178.116561-104.557969-48.464211-30.457045-87.495927-60.130809-117.0951472-89.021291-29.5992207-28.890481-51.0676823-60.038499-64.4053849-93.444051-13.33770261-33.405553-20.0065539-72.523499-20.0065539-117.353838z" fill="#fff"/>
              <path d="m23.0944149 580.738753v-354.046238c0-26.290017 5.3493033-45.337206 16.0479099-57.141567 10.6986065-11.804361 26.7926532-22.202708 48.2821399-31.195042 13.3386553-5.418984 32.8352903-13.014276 58.4899023-22.785877 25.654613-9.771602 53.270039-20.0840761 82.846278-30.9374235 29.576239-10.8533473 57.159625-20.7467091 82.750159-29.6800855 25.590534-8.9333763 44.991049-15.2892749 58.201547-19.0676958 6.700086-1.86614 13.8295-3.6592238 21.388242-5.3792512 7.558743-1.7200274 14.952162-2.5800411 22.180257-2.5800411 7.551053 0 15.099543.7036476 22.64547 2.1109427 7.545926 1.4072952 14.666369 3.356745 21.361329 5.8483496 13.210498 4.3987586 32.618703 11.131474 58.224616 20.198146 25.605912 9.0666721 53.189299 18.8869776 82.750159 29.4609166s57.168596 20.6646812 82.823209 30.2722262c25.654612 9.607545 45.166626 17.120809 58.536039 22.539793 21.161403 9.289686 37.165739 19.762371 48.013009 31.418056 10.847269 11.655685 16.270904 30.628536 16.270904 56.918553v354.046238c0 42.326517-6.288699 79.334022-18.866098 111.022515s-32.764803 61.171198-60.562213 88.448116c-27.79741 27.276917-64.581239 55.29337-110.351487 84.049357-45.770249 28.755987-101.966128 61.513409-168.587638 98.272267-5.941392 3.281125-11.771287 5.691983-17.489684 7.232574-5.718398 1.540591-10.640936 2.310886-14.767615 2.310886-3.798595 0-8.558372-.770295-14.279333-2.310886s-11.549574-3.951449-17.48584-7.232574c-66.354941-37.05621-122.411129-69.962308-168.168562-98.718295-45.757432-28.755987-82.609185-56.77244-110.555258-84.049357-27.9460726-27.276918-48.2154978-56.685285-60.8082756-88.225102-12.5927777-31.539817-18.8891665-68.472984-18.8891665-110.799501z" fill="#171e21"/>
              <use fill="#fff" xlink:href="#a"/>
              <use fill="none" xlink:href="#a"/>
          </g>
          <g transform="translate(435 546)">
              <!-- Gear -->
              <path d="m223.615028 447c-30.827586 0-59.738034-5.78678-86.731343-17.36034-26.993309-11.573559-50.765826-27.630915-71.3175502-48.172067-20.5517241-20.541153-36.6173443-44.339764-48.1968605-71.395834-11.57951619-27.05607-17.3692743-55.913323-17.3692743-86.571759 0-30.811728 5.78975811-59.707305 17.3692743-86.686728 11.5795162-26.979424 27.6451364-50.7397123 48.1968605-71.2808646 20.5517242-20.5411523 44.3242412-36.5985082 71.3175502-48.1720679 26.993309-11.57355966 55.903757-17.3603395 86.731343-17.3603395 30.827587 0 59.699692 5.78677984 86.616315 17.3603395 26.916624 11.5735597 50.650798 27.6309156 71.202522 48.1720679s36.617344 44.3014406 48.196861 71.2808646c11.579516 26.979423 17.369274 55.875 17.369274 86.686728 0 30.658436-5.789758 59.515689-17.369274 86.571759-11.579517 27.05607-27.645137 50.854681-48.196861 71.395834-20.551724 20.541152-44.285898 36.598508-71.202522 48.172067-26.916623 11.57356-55.788728 17.36034-86.616315 17.36034z" fill="#fff"/>
              <path d="m223.603389 424.383929c-27.708129 0-53.693114-5.201213-77.954958-15.603639-24.261843-10.402426-45.628808-24.83493-64.1008931-43.297513-18.4720854-18.462584-32.9120178-39.853002-43.3197973-64.171255-10.4077794-24.318254-15.6116692-50.255428-15.6116692-77.811522 0-27.693875 5.2038898-53.665494 15.6116692-77.914857 10.4077795-24.249363 24.8477119-45.6053364 43.3197973-64.0679197 18.4720851-18.4625833 39.8390501-32.8950877 64.1008931-43.2975134 24.261844-10.4024256 50.246829-15.6036385 77.954958-15.6036385 27.708128 0 53.658651 5.2012129 77.851568 15.6036385 24.192918 10.4024257 45.52542 24.8349301 63.997505 43.2975134 18.472086 18.4625833 32.912018 39.8185567 43.319797 64.0679197 10.40778 24.249363 15.61167 50.220982 15.61167 77.914857 0 27.556094-5.20389 53.493268-15.61167 77.811522-10.407779 24.318253-24.847711 45.708671-43.319797 64.171255-18.472085 18.462583-39.804587 32.895087-63.997505 43.297513-24.192917 10.402426-50.14344 15.603639-77.851568 15.603639z" fill="#171e21"/>
              <path d="m212.421153 340.571429h20.621125c2.886958 0 5.395861-.859214 7.526711-2.577641 2.130849-1.718427 3.53996-4.021119 4.22733-6.908077l5.773915-24.332927c2.062113-.549897 4.089857-1.202899 6.083232-1.959007 1.993376-.756108 3.814908-1.615322 5.464598-2.577641l21.033548 12.991309c2.474535 1.374742 5.052175 1.993375 7.732922 1.855901 2.680746-.137474 5.120912-1.237267 7.320499-3.29938l14.022365-14.022365c2.199586-2.337061 3.436854-4.880333 3.711802-7.629816.274949-2.749483-.481159-5.361492-2.268323-7.836027l-12.578887-21.033548c.824845-1.787164 1.615322-3.643065 2.37143-5.567703.756108-1.924639 1.40911-3.78054 1.959007-5.567704l24.332927-5.773915c6.323812-1.374742 9.485717-5.292756 9.485717-11.754041v-20.002492c0-3.024431-.824845-5.602072-2.474535-7.732921-1.64969-2.13085-3.98675-3.53996-7.011182-4.227331l-24.126716-5.773915c-.687371-2.062112-1.443479-4.055488-2.268324-5.980126s-1.512216-3.643066-2.062112-5.155281l12.578886-21.239759c3.574328-5.911389 3.161906-10.997933-1.237268-15.259632l-14.640998-14.228577c-4.536648-4.261699-9.416981-4.811595-14.640999-1.64969l-21.239759 13.19752c-1.64969-.824845-3.436854-1.64969-5.361492-2.474535s-3.986751-1.64969-6.186338-2.474535l-5.773915-24.126716c-.68737-2.886957-2.096481-5.224018-4.22733-7.011182-2.13085-1.787164-4.639753-2.680746-7.526711-2.680746h-20.621125c-6.323811 0-10.173088 3.230642-11.54783 9.691928l-5.980126 24.126716c-1.924638.687371-3.883645 1.409111-5.87702 2.165219-1.993376.756107-3.883646 1.684058-5.67081 2.783851l-21.239758-13.19752c-5.224019-3.29938-10.173089-2.749483-14.84721 1.64969l-14.228576 14.228577c-4.399174 4.261699-4.880333 9.348243-1.443479 15.259632l12.785097 21.239759c-.687371 1.512215-1.443479 3.230643-2.268324 5.155281s-1.580952 3.918014-2.268323 5.980126l-23.920505 5.773915c-3.024432.687371-5.361493 2.096481-7.011183 4.227331-1.64969 2.130849-2.474535 4.70849-2.474535 7.732921v20.002492c0 6.461285 3.161906 10.379299 9.485718 11.754041l24.126716 5.773915c.687371 1.787164 1.374742 3.643065 2.062112 5.567704.687371 1.924638 1.512216 3.780539 2.474535 5.567703l-12.785097 21.033548c-1.787164 2.474535-2.543272 5.086544-2.268324 7.836027.274949 2.749483 1.512216 5.292755 3.711803 7.629816l14.022365 14.022365c2.199586 2.062113 4.674121 3.161906 7.423605 3.29938 2.749483.137474 5.292755-.481159 7.629816-1.855901l21.239759-12.991309c1.64969.962319 3.471222 1.821533 5.464598 2.577641 1.993375.756108 3.952382 1.40911 5.87702 1.959007l5.980126 24.332927c.549897 2.886958 1.89027 5.18965 4.02112 6.908077 2.130849 1.718427 4.639753 2.577641 7.52671 2.577641z" fill="#fff"/>
              <path d="m223.5 262.080357c-10.671163 0-19.769013-3.851684-27.293551-11.555051-7.524537-7.703368-11.286806-16.89883-11.286806-27.586385 0-10.826355 3.762269-20.091216 11.286806-27.794584 7.524538-7.703367 16.622388-11.555051 27.293551-11.555051s19.769013 3.851684 27.293551 11.555051c7.524537 7.703368 11.286806 16.968229 11.286806 27.794584 0 10.687555-3.762269 19.883017-11.286806 27.586385-7.524538 7.703367-16.622388 11.555051-27.293551 11.555051z" fill="#171e21"/>
          </g>
          <g stroke-width="20" transform="translate(1025.7617 102.4623)" id="text">
              <!-- Text -->
              <path d="m511.463887-10v747.537675h-141.093519l-.000368-56.664675-.123349.158907c-13.801452 17.459586-30.161404 31.457388-48.542741 42.051782l-.849802.486556c-28.369581 16.135199-61.557241 24.221317-97.710002 24.221317-70.450604 0-128.742726-28.230971-169.5204303-77.306983-40.3972927-48.618186-63.6236757-118.011061-63.6236757-201.247193 0-82.12671 23.5247435-151.216635 63.8935788-199.836683 40.8633502-49.215639 98.9968582-77.740931 168.2739662-77.740931 59.411096 0 109.929731 20.216339 145.347756 62.121837l.901699 1.079391.000247-264.861zm-259.511243 323.710358c-35.449257 0-65.081778 13.880091-85.575748 40.498695-20.501058 26.627811-31.865415 65.509571-31.865415 115.028333 0 49.688783 11.332576 88.545731 31.79032 115.117283 20.498047 26.623901 50.162829 40.409745 85.650843 40.409745 37.064468 0 67.778129-14.871366 89.1683-41.432787 21.98707-27.302626 34.132227-66.572324 34.132227-114.094241 0-47.348663-12.180744-86.652564-34.217042-114.016319-21.385091-26.555113-52.063791-41.510709-89.083485-41.510709z"/>
              <path d="m833.495623 190.194931c76.98286 0 141.010115 28.515176 185.972607 77.298591 45.09397 48.926069 71.09723 118.464431 71.09723 200.767304v43.691342h-372.442389c2.958137 35.347889 14.674844 64.964815 34.726379 85.967701 20.937978 21.931385 50.868561 34.16875 88.458659 34.16875 28.048646 0 51.640084-6.415463 69.937587-17.879874 20.743702-12.997091 34.523161-32.475875 40.169555-55.850454h134.564969c-7.81506 58.312637-39.24613 107.633891-86.080735 141.572008-42.982199 31.146521-99.003925 49.326103-161.521058 49.326103-79.396121 0-143.990089-28.689738-189.173827-77.03195-46.283668-49.519031-72.290538-119.904239-72.290538-202.010505 0-81.345204 26.732023-151.280024 72.025323-200.878429 45.376218-49.689206 109.433215-79.140587 184.556238-79.140587zm1.953122 117.656063c-32.657178 0-59.964487 10.17175-80.016985 28.990249-18.122567 17.007331-30.226156 40.922693-35.39643 70.150149h230.89757c-4.991675-29.170492-17.059701-53.04681-35.171026-70.043592-20.124467-18.886039-47.589519-29.096806-80.313129-29.096806z"/>
              <path d="m1255.62368 201.913658 96.6233 275.351393c10.67262 32.805527 21.02557 65.931155 31.31684 98.860185l-2.39982-7.677236.95236-3.158757c8.17092-27.087212 16.46352-54.268516 25.16336-81.2579l2.18361-6.743182 95.12938-275.374503h150.47414l-201.36623 535.624017h-148.61309l-201.36623-535.624017z"/>
              <path d="m1898.92536 190.683211c65.59974 0 120.60331 17.69424 159.53442 49.052938 41.45978 33.395525 65.05669 82.293486 63.88041 142.821734h-136.17078c2.53678-24.308796-6.23207-45.524245-23.26079-59.831884-14.93367-12.547366-36.00711-19.757808-61.05357-19.757808-23.92815 0-43.4573 5.635453-57.09741 15.389272-12.942 9.254617-20.30477 22.272754-20.30477 37.110609 0 11.944003 4.86903 21.630246 13.74671 29.303092 10.69792 9.246062 26.665 15.668482 46.67374 19.993424l92.74734 19.037614c53.35175 11.229007 92.19324 28.882615 117.86099 53.292142 26.5271 25.226752 39.5175 57.692861 39.5175 98.588152 0 52.981656-23.69607 96.346499-64.10962 126.656663-40.30782 30.230864-97.59517 47.405524-164.63996 47.405524-66.80062 0-124.67826-16.78261-166.41027-48.351435-42.97639-32.510152-69.18946-80.650279-70.62473-143.034957h141.40796c.72364 26.487553 9.96044 47.24909 27.49176 60.709158 15.91125 12.216216 38.26526 18.392254 66.18216 18.392254 26.95716 0 48.81466-5.49457 63.97094-15.392547 13.83456-9.034814 21.732-21.841537 21.732-37.107334 0-11.908207-5.01193-21.342777-13.93896-28.781971-11.16162-9.30135-27.82864-15.624048-48.42443-20.024187l-87.86393-18.060919c-51.77099-10.762726-91.01848-29.622288-117.42841-55.77498-26.97632-26.713565-40.93743-61.071229-40.93743-102.94345 0-50.840821 21.9724-93.393375 60.90103-123.162332 37.56974-28.729799 91.28527-45.528772 156.6181-45.528772z"/>
              <path d="m2431.64015 190.194931c76.98286 0 141.01012 28.515176 185.97261 77.298591 45.09397 48.926069 71.09724 118.464431 71.09724 200.767304v43.691342h-372.4424c2.95814 35.347889 14.67485 64.964815 34.72638 85.967701 20.93798 21.931385 50.86856 34.16875 88.45866 34.16875 28.04865 0 51.64008-6.415463 69.93759-17.879874 20.7437-12.997091 34.52316-32.475875 40.16955-55.850454h134.56497c-7.81506 58.312637-39.24613 107.633891-86.08073 141.572008-42.9822 31.146521-99.00393 49.326103-161.52106 49.326103-79.39612 0-143.99009-28.689738-189.17383-77.03195-46.28367-49.519031-72.29054-119.904239-72.29054-202.010505 0-81.345204 26.73203-151.280024 72.02533-200.878429 45.37621-49.689206 109.43321-79.140587 184.55623-79.140587zm1.95313 117.656063c-32.65718 0-59.96449 10.17175-80.01699 28.990249-18.12257 17.007331-30.22615 40.922693-35.39643 70.150149h230.89757c-4.99167-29.170492-17.0597-53.04681-35.17102-70.043592-20.12447-18.886039-47.58952-29.096806-80.31313-29.096806z"/>
              <path d="m2990.23389 190.194931c66.87954 0 124.53 21.081311 167.04361 56.760793 45.98412 38.5921 74.39115 94.30889 77.57637 159.527895h-140.05171c-3.19432-29.51474-14.87662-54.649391-34.86645-71.409421-17.02474-14.274026-39.96403-22.3404-68.23697-22.3404-36.61954 0-66.03755 14.668744-86.31774 41.01763-21.30893 27.685462-32.58827 67.761577-32.58827 116.462519 0 48.503769 11.1774 88.370008 32.4699 115.872815 20.22894 26.129058 49.63811 40.630774 86.43611 40.630774 28.20228 0 50.2643-7.571422 66.65608-21.508047 19.53455-16.608671 30.87122-41.958803 35.84985-72.730055h140.47152c-1.99752 64.237196-30.26606 120.315701-76.70046 159.382641-42.60156 35.842232-100.5907 57.394327-167.74184 57.394327-78.28168 0-143.5788-28.577454-189.45485-77.565251-45.93402-49.04969-72.49779-118.77203-72.49779-201.477204 0-82.763991 26.60271-152.781813 72.60569-202.083463 45.87389-49.163288 111.13172-77.935553 189.34695-77.935553z"/>
              <path d="m3370.11702 574.959822c23.77025 0 45.18398 9.547759 60.65983 25.023616 15.47586 15.475857 25.02362 36.889586 25.02362 60.659833s-9.54776 45.183976-25.02362 60.659833c-15.47585 15.475857-36.88958 25.023617-60.65983 25.023617s-45.18397-9.54776-60.65983-25.023617-25.02362-36.889586-25.02362-60.659833 9.54776-45.183976 25.02362-60.659833 36.88958-25.023616 60.65983-25.023616z"/>
              <path d="m3719.96057 61.2889265v140.6247315h104.98027v119.120905h-104.98027v258.554175c0 14.492842 1.46954 24.797876 8.0672 30.963914 6.7237 6.283832 17.92509 7.864118 34.1788 7.864118h62.73427v119.120905h-84.21861c-55.57524 0-96.09947-11.542019-122.95776-34.150574-27.43537-23.094336-41.33882-57.871867-41.33882-105.731991v-276.620547h-89.84358v-119.120905h89.84358v-140.6247315z"/>
              <path d="m4123.04639 190.194931c78.86294 0 144.83632 28.647199 191.20736 77.866368 46.3198 49.164777 73.18669 119.059167 73.18669 202.152648 0 83.034257-26.82745 152.634638-73.07775 201.548105-46.37323 49.043474-112.38655 77.49435-191.3163 77.49435s-144.94307-28.450876-191.3163-77.49435c-46.2503-48.913467-73.07775-118.513848-73.07775-201.548105 0-83.093481 26.86689-152.987871 73.18669-202.152648 46.37104-49.219169 112.34442-77.866368 191.20736-77.866368zm0 123.027147c-36.38364 0-66.29395 14.565334-87.00956 41.199685-21.26846 27.345166-32.873 66.950483-32.873 115.792184 0 48.64814 11.50639 88.045589 32.75766 115.208857 20.66216 26.410286 50.55969 40.806451 87.1249 40.806451 36.30511 0 66.05303-14.503431 86.64613-40.924764 21.21892-27.22427 32.74815-66.638697 32.74815-115.090544 0-48.644951-11.62706-88.266707-32.86271-115.672715-20.64654-26.645732-50.40741-41.319154-86.53157-41.319154z"/>
              <path d="m4692.87061 190.194931c78.86294 0 144.83632 28.647199 191.20736 77.866368 46.3198 49.164777 73.18668 119.059167 73.18668 202.152648 0 83.034257-26.82744 152.634638-73.07774 201.548105-46.37323 49.043474-112.38655 77.49435-191.3163 77.49435s-144.94307-28.450876-191.3163-77.49435c-46.25031-48.913467-73.07775-118.513848-73.07775-201.548105 0-83.093481 26.86689-152.987871 73.18669-202.152648 46.37104-49.219169 112.34442-77.866368 191.20736-77.866368zm0 123.027147c-36.38364 0-66.29395 14.565334-87.00956 41.199685-21.26846 27.345166-32.87301 66.950483-32.87301 115.792184 0 48.64814 11.5064 88.045589 32.75766 115.208857 20.66217 26.410286 50.5597 40.806451 87.12491 40.806451 36.3051 0 66.05303-14.503431 86.64613-40.924764 21.21892-27.22427 32.74815-66.638697 32.74815-115.090544 0-48.644951-11.62706-88.266707-32.86271-115.672715-20.64654-26.645732-50.40741-41.319154-86.53157-41.319154z"/>
              <path d="m5165.27316-10v747.537675h-143.04664v-747.537675z"/>
              <path d="m5459.47224 190.683211c65.59973 0 120.6033 17.69424 159.53441 49.052938 41.45979 33.395525 65.05669 82.293486 63.88042 142.821734h-136.17079c2.53679-24.308796-6.23206-45.524245-23.26078-59.831884-14.93368-12.547366-36.00711-19.757808-61.05358-19.757808-23.92814 0-43.4573 5.635453-57.0974 15.389272-12.94201 9.254617-20.30478 22.272754-20.30478 37.110609 0 11.944003 4.86904 21.630246 13.74671 29.303092 10.69792 9.246062 26.665 15.668482 46.67374 19.993424l92.74735 19.037614c53.35174 11.229007 92.19323 28.882615 117.86098 53.292142 26.5271 25.226752 39.51751 57.692861 39.51751 98.588152 0 52.981656-23.69607 96.346499-64.10962 126.656663-40.30782 30.230864-97.59518 47.405524-164.63997 47.405524-66.80062 0-124.67826-16.78261-166.41027-48.351435-42.97638-32.510152-69.18946-80.650279-70.62473-143.034957h141.40797c.72364 26.487553 9.96043 47.24909 27.49176 60.709158 15.91124 12.216216 38.26526 18.392254 66.18215 18.392254 26.95717 0 48.81467-5.49457 63.97094-15.392547 13.83456-9.034814 21.732-21.841537 21.732-37.107334 0-11.908207-5.01192-21.342777-13.93896-28.781971-11.16162-9.30135-27.82863-15.624048-48.42442-20.024187l-87.86394-18.060919c-51.77099-10.762726-91.01848-29.622288-117.42841-55.77498-26.97632-26.713565-40.93743-61.071229-40.93743-102.94345 0-50.840821 21.9724-93.393375 60.90104-123.162332 37.56974-28.729799 91.28526-45.528772 156.6181-45.528772z"/>
          </g>
      </g>
  </svg>
