<svg viewBox="0 0 7438 1488" width="{{ .width }}"
    xmlns="http://www.w3.org/2000/svg">
    <g fill="none">
        <path d="m1232.55969 1067.46094c10.10755 0 18.30133 8.19606 18.30133 18.30642s-8.19378 18.30642-18.30133 18.30642h-1078.55836c-10.107546 0-18.30133-8.19606-18.30133-18.30642s8.193784-18.30642 18.30133-18.30642zm-994.347678 91.5321 908.966038 1.22046c10.10754.01357 18.29032 8.22063 18.27679 18.33098-.01361 10.11035-8.21838 18.2954-18.32592 18.28187l-908.96604-1.22047c-10.107536-.01357-18.290314-8.22063-18.276781-18.33097.013601-10.11035 8.218376-18.29541 18.325913-18.28187zm786.932608 91.53213c10.10755 0 18.30133 8.19606 18.30133 18.30642s-8.19378 18.30643-18.30133 18.30643h-666.168398c-10.107546 0-18.30133-8.19607-18.30133-18.30643s8.193784-18.30642 18.30133-18.30642zm79.39249-679.778232 254.99853 1.220855c10.10743.048374 18.26191 8.28356 18.21398 18.393803-.04879 10.110242-8.28168 18.266998-18.38911 18.21905l-254.99853-1.220854c-10.10743-.048375-18.26191-8.283561-18.21398-18.393804.04879-10.110242 8.28168-18.266998 18.38911-18.21905zm252.33214 192.828399c10.10726-.076591 18.36288 8.057149 18.44051 18.167217.07551 10.110068-8.05597 18.367987-18.16322 18.444579l-161.0517 1.220428c-10.10726.076591-18.36288-8.057149-18.44052-18.167217-.0755-10.110068 8.05598-18.367987 18.16323-18.444579zm-1137.098553-79.938399c10.107345-.06285 18.3525 8.081506 18.416802 18.191664.062834 10.110158-8.079256 18.357608-18.186602 18.421194l-193.9940937 1.221163c-10.1073454.062851-18.35249995-8.081505-18.4168033-18.191664-.06283307-10.110158 8.079257-18.357607 18.1866024-18.421193zm62.339621 199.540386c10.107545 0 18.30133 8.196064 18.30133 18.306423 0 10.110358-8.193785 18.306423-18.30133 18.306423h-215.9556899c-10.1075453 0-18.3013297-8.196065-18.3013297-18.306423 0-10.110359 8.1937844-18.306423 18.3013297-18.306423z" fill="#6b8c91" transform="translate(-7 113.913)"/>
        <g transform="translate(267.79)">
            <path d="m447.773 1023.939v463.763h-48.804v-463.763z" fill="#1f303a"/>
            <g transform="translate(2.44 805.483)">
                <path d="m414.368 4.882.872 251.408h-402.543z" fill="#55767d"/>
                <path d="m814.061 4.882.872 251.408h-402.543z" fill="#335056" transform="matrix(-1 0 0 1 1227.323 0)"/>
                <path d="m417.270316 0 417.270316 261.171637h-834.540632zm0 43.1885135-289.775933 181.3702775h579.549426z" fill="#1f303a"/>
            </g>
            <g transform="translate(0 663.913)">
                <path d="m416.398 9.763.872 202.592h-402.629z" fill="#83a3a8"/>
                <path d="m816.588 9.763.872 202.592h-402.629z" fill="#45666d" transform="matrix(-1 0 0 1 1232.29 0)"/>
                <path d="m417.270316 0 417.270316 214.795365h-834.540632zm0 41.1748069-266.157457 137.0077121h532.312474z" fill="#1f303a"/>
            </g>
            <g transform="translate(107.368 495.494)">
                <path d="m311.687 9.763.656 187.946h-302.582z" fill="#83a3a8"/>
                <path d="m611.829 9.763.655 187.946h-302.581z" fill="#45666d" transform="matrix(-1 0 0 1 922.387 0)"/>
                <path d="m313.562781 0 313.562782 200.150226h-627.125563zm0 43.4301583-188.16451 120.1072217h376.326581z" fill="#1f303a"/>
            </g>
            <g transform="translate(107.368 331.957)">
                <path d="m311.687 9.763.656 180.624h-302.582z" fill="#83a3a8"/>
                <path d="m611.829 9.763.655 180.624h-302.581z" fill="#45666d" transform="matrix(-1 0 0 1 922.387 0)"/>
                <path d="m313.562781 0 313.562782 192.827657h-627.125563zm-.00244 42.976159-184.138218 113.238652h368.278876z" fill="#1f303a"/>
            </g>
            <g transform="translate(292.821)">
                <path d="m129.329 0v339.279h-2.44v-339.279z" fill="#1f303a"/>
                <path d="m126.784.296.105 336.542h-126.889z" fill="#83a3a8"/>
                <path d="m256.218.825-.29 336.013h-126.89z" fill="#36575c" transform="matrix(-1 0 0 1 385.257 0)"/>
                <path d="m188.272 180.051 67.947 73.798-126.88 83.136z" fill="#1d363b" transform="matrix(-1 0 0 1 385.558 0)"/>
                <path d="m58.942 180.051 67.947 73.798-126.879 83.136z" fill="#243d42"/>
            </g>
        </g>
        <g transform="translate(6079 951)">
            <path d="m91.406 0v274.504h109.594v77.496h-201v-352z" fill="#fff"/>
            <path d="m91.406 0v274.504h109.594v77.496h-201v-352z" fill="#1f303a"/>
        </g>
        <g transform="translate(6355 951)">
            <path d="m225.096447 221.28382-41.096447-117.177719-41.096447 117.177719zm24.284264 69.559681h-130.761422l-21.0152281 61.156499h-97.6040609l134.030457-352h99.939086l134.030457 352h-97.604061z" fill="#fff"/>
            <path d="m225.096447 221.28382-41.096447-117.177719-41.096447 117.177719zm24.284264 69.559681h-130.761422l-21.0152281 61.156499h-97.6040609l134.030457-352h99.939086l134.030457 352h-97.604061z" fill="#1f303a"/>
        </g>
        <g transform="translate(6811 951)">
            <path d="m91.693913 281.039788h20.116522c23.079419 0 39.609277-2.956676 49.589565-8.870027s14.970435-15.405835 14.970435-28.477453-4.990147-22.564103-14.970435-28.477454-26.510146-8.870026-49.589565-8.870026h-20.116522zm0-142.854112h16.841739c28.693332 0 43.04-11.359858 43.04-34.079575 0-22.7197174-14.346668-34.0795758-43.04-34.0795758h-16.841739zm-91.693913-138.185676h136.605217c32.435941 0 57.074783 7.78072504 73.916522 23.3421751 16.841739 15.5614499 25.262609 37.9699379 25.262609 67.2254642 0 17.7400527-3.19681 32.4456237-9.590435 44.1167107-6.393625 11.671088-16.14 21.552609-29.23913 29.644562 13.09913 2.489832 24.248984 6.302388 33.449565 11.437666 9.200581 5.135279 16.685798 11.437666 22.455652 18.907162s9.90232 15.872679 12.397391 25.209549 3.742609 19.296198 3.742609 29.877984c0 16.495137-2.884929 31.1229-8.654783 43.883289-5.769853 12.760389-13.878842 23.49779-24.326956 32.212202-10.448115 8.714412-23.157391 15.250221-38.127826 19.607427s-31.812174 6.535809-50.525218 6.535809h-147.365217z" fill="#fff"/>
            <path d="m91.693913 281.039788h20.116522c23.079419 0 39.609277-2.956676 49.589565-8.870027s14.970435-15.405835 14.970435-28.477453-4.990147-22.564103-14.970435-28.477454-26.510146-8.870026-49.589565-8.870026h-20.116522zm0-142.854112h16.841739c28.693332 0 43.04-11.359858 43.04-34.079575 0-22.7197174-14.346668-34.0795758-43.04-34.0795758h-16.841739zm-91.693913-138.185676h136.605217c32.435941 0 57.074783 7.78072504 73.916522 23.3421751 16.841739 15.5614499 25.262609 37.9699379 25.262609 67.2254642 0 17.7400527-3.19681 32.4456237-9.590435 44.1167107-6.393625 11.671088-16.14 21.552609-29.23913 29.644562 13.09913 2.489832 24.248984 6.302388 33.449565 11.437666 9.200581 5.135279 16.685798 11.437666 22.455652 18.907162s9.90232 15.872679 12.397391 25.209549 3.742609 19.296198 3.742609 29.877984c0 16.495137-2.884929 31.1229-8.654783 43.883289-5.769853 12.760389-13.878842 23.49779-24.326956 32.212202-10.448115 8.714412-23.157391 15.250221-38.127826 19.607427s-31.812174 6.535809-50.525218 6.535809h-147.365217z" fill="#1f303a"/>
        </g>
        <g transform="translate(7164 941)">
            <path d="m209.924596 100.01005c-9.996408-8.1005021-19.99282-14.0979899-29.989228-17.9924621s-19.680431-5.8417085-29.052065-5.8417085c-11.870734 0-21.554757 2.8040201-29.052064 8.4120603s-11.245961 12.9296484-11.245961 21.9648243c0 6.231155 1.874327 11.371859 5.622981 15.42211 3.748653 4.050252 8.668761 7.555277 14.760323 10.515076s12.964095 5.53015 20.617594 7.711055 15.228905 4.517588 22.726212 7.01005c29.989228 9.969849 51.934469 23.288945 65.835727 39.957287s20.851885 38.399497 20.851885 65.193467c0 18.070352-3.045781 34.427136-9.137343 49.070352s-14.994614 27.183417-26.709156 37.620603-26.084382 18.537688-43.109515 24.301507-36.315081 8.645729-57.869839 8.645729c-44.6714524 0-86.062838-13.241206-124.174147-39.723618l39.3608618-73.839196c13.7450612 12.150754 27.3339302 21.185929 40.7666068 27.105528 13.4326766 5.919598 26.7091564 8.879397 39.8294434 8.879397 14.994614 0 26.162476-3.427136 33.503591-10.281407 7.341114-6.854272 11.011669-14.643216 11.011669-23.366835 0-5.296482-.937163-9.89196-2.81149-13.786432s-4.998206-7.477387-9.371634-10.748744c-4.373427-3.271356-10.074506-6.309045-17.103231-9.113065s-15.541294-5.919598-25.537702-9.346734c-11.8707346-3.738693-23.507183-7.866834-34.9093358-12.384422-11.4021529-4.517588-21.5547577-10.515075-30.4578097-17.992462-8.9030521-7.477387-16.0879697-16.90201-21.5547577-28.273869-5.4667879-11.371859-8.2001795-25.781407-8.2001795-43.228644 0-17.4472355 2.8895887-33.2587936 8.6687612-47.4346729 5.7791726-14.1758792 13.9012583-26.3266331 24.3662478-36.4522613 10.4649895-10.1256281 23.272892-17.9924623 38.4236984-23.6005025 15.1508063-5.6080402 32.0978453-8.4120603 50.8411133-8.4120603 17.493715 0 35.7684 2.41457288 54.824057 7.24371859s37.330343 11.91708541 54.824058 21.26381911z" fill="#fff"/>
            <path d="m209.924596 100.01005c-9.996408-8.1005021-19.99282-14.0979899-29.989228-17.9924621s-19.680431-5.8417085-29.052065-5.8417085c-11.870734 0-21.554757 2.8040201-29.052064 8.4120603s-11.245961 12.9296484-11.245961 21.9648243c0 6.231155 1.874327 11.371859 5.622981 15.42211 3.748653 4.050252 8.668761 7.555277 14.760323 10.515076s12.964095 5.53015 20.617594 7.711055 15.228905 4.517588 22.726212 7.01005c29.989228 9.969849 51.934469 23.288945 65.835727 39.957287s20.851885 38.399497 20.851885 65.193467c0 18.070352-3.045781 34.427136-9.137343 49.070352s-14.994614 27.183417-26.709156 37.620603-26.084382 18.537688-43.109515 24.301507-36.315081 8.645729-57.869839 8.645729c-44.6714524 0-86.062838-13.241206-124.174147-39.723618l39.3608618-73.839196c13.7450612 12.150754 27.3339302 21.185929 40.7666068 27.105528 13.4326766 5.919598 26.7091564 8.879397 39.8294434 8.879397 14.994614 0 26.162476-3.427136 33.503591-10.281407 7.341114-6.854272 11.011669-14.643216 11.011669-23.366835 0-5.296482-.937163-9.89196-2.81149-13.786432s-4.998206-7.477387-9.371634-10.748744c-4.373427-3.271356-10.074506-6.309045-17.103231-9.113065s-15.541294-5.919598-25.537702-9.346734c-11.8707346-3.738693-23.507183-7.866834-34.9093358-12.384422-11.4021529-4.517588-21.5547577-10.515075-30.4578097-17.992462-8.9030521-7.477387-16.0879697-16.90201-21.5547577-28.273869-5.4667879-11.371859-8.2001795-25.781407-8.2001795-43.228644 0-17.4472355 2.8895887-33.2587936 8.6687612-47.4346729 5.7791726-14.1758792 13.9012583-26.3266331 24.3662478-36.4522613 10.4649895-10.1256281 23.272892-17.9924623 38.4236984-23.6005025 15.1508063-5.6080402 32.0978453-8.4120603 50.8411133-8.4120603 17.493715 0 35.7684 2.41457288 54.824057 7.24371859s37.330343 11.91708541 54.824058 21.26381911z" fill="#1f303a"/>
        </g>
        <path d="m0 564.553v-564.553h146.625l270.808 345.171v-345.171h145.877v564.553h-145.877l-270.808-345.171v345.171z" fill="#fff" transform="translate(1668 337.724)"/>
        <path d="m0 564.553v-564.553h146.625l270.808 345.171v-345.171h145.877v564.553h-145.877l-270.808-345.171v345.171z" fill="#1f303a" transform="translate(1668 337.724)"/>
        <path d="m153.357967 298c0 22.462312 4.239165 43.177555 12.71749 62.145729s19.949005 35.440536 34.412032 49.417085c14.463026 13.97655 31.294998 24.833334 50.495916 32.570352 19.200917 7.737018 39.523962 11.605527 60.969143 11.605527 21.44518 0 41.768225-3.868509 60.969143-11.605527 19.200917-7.737018 36.157568-18.593802 50.869959-32.570352 14.712392-13.976549 26.307751-30.448911 34.786076-49.417085s12.71749-39.683417 12.71749-62.145729-4.239165-43.177555-12.71749-62.145729-20.073684-35.440536-34.786076-49.417085c-14.712391-13.97655-31.669042-24.833334-50.869959-32.570352-19.200918-7.737018-39.523963-11.605527-60.969143-11.605527-21.445181 0-41.768226 3.868509-60.969143 11.605527-19.200918 7.737018-36.03289 18.593802-50.495916 32.570352-14.463027 13.976549-25.933707 30.448911-34.412032 49.417085s-12.71749 39.683417-12.71749 62.145729zm-153.357967 0c0-41.929648 7.73023743-80.989112 23.190717-117.178392 15.4604795-36.18928 36.9056555-67.761306 64.3355374-94.7160804 27.4298816-26.9547738 60.2210556-48.0443886 98.3735256-63.2688442 38.152469-15.22445558 80.17006-22.8366834 126.052768-22.8366834 45.383985 0 87.276893 7.61222782 125.678724 22.8366834 38.401831 15.2244556 71.44237 36.3140704 99.121613 63.2688442 27.679243 26.9547744 49.249101 58.5268004 64.709581 94.7160804s23.190717 75.248744 23.190717 117.178392-7.730237 80.989112-23.190717 117.178392-37.030338 67.761306-64.709581 94.71608-60.719782 48.044391-99.121613 63.268845-80.294739 22.836683-125.678724 22.836683c-45.882708 0-87.900299-7.612229-126.052768-22.836683-38.15247-15.224454-70.943644-36.314071-98.3735256-63.268845-27.4298819-26.954774-48.8750579-58.5268-64.3355374-94.71608-15.46047957-36.18928-23.190717-75.248744-23.190717-117.178392z" fill="#fff" transform="translate(2344.832 322)"/>
        <path d="m153.357967 298c0 22.462312 4.239165 43.177555 12.71749 62.145729s19.949005 35.440536 34.412032 49.417085c14.463026 13.97655 31.294998 24.833334 50.495916 32.570352 19.200917 7.737018 39.523962 11.605527 60.969143 11.605527 21.44518 0 41.768225-3.868509 60.969143-11.605527 19.200917-7.737018 36.157568-18.593802 50.869959-32.570352 14.712392-13.976549 26.307751-30.448911 34.786076-49.417085s12.71749-39.683417 12.71749-62.145729-4.239165-43.177555-12.71749-62.145729-20.073684-35.440536-34.786076-49.417085c-14.712391-13.97655-31.669042-24.833334-50.869959-32.570352-19.200918-7.737018-39.523963-11.605527-60.969143-11.605527-21.445181 0-41.768226 3.868509-60.969143 11.605527-19.200918 7.737018-36.03289 18.593802-50.495916 32.570352-14.463027 13.976549-25.933707 30.448911-34.412032 49.417085s-12.71749 39.683417-12.71749 62.145729zm-153.357967 0c0-41.929648 7.73023743-80.989112 23.190717-117.178392 15.4604795-36.18928 36.9056555-67.761306 64.3355374-94.7160804 27.4298816-26.9547738 60.2210556-48.0443886 98.3735256-63.2688442 38.152469-15.22445558 80.17006-22.8366834 126.052768-22.8366834 45.383985 0 87.276893 7.61222782 125.678724 22.8366834 38.401831 15.2244556 71.44237 36.3140704 99.121613 63.2688442 27.679243 26.9547744 49.249101 58.5268004 64.709581 94.7160804s23.190717 75.248744 23.190717 117.178392-7.730237 80.989112-23.190717 117.178392-37.030338 67.761306-64.709581 94.71608-60.719782 48.044391-99.121613 63.268845-80.294739 22.836683-125.678724 22.836683c-45.882708 0-87.900299-7.612229-126.052768-22.836683-38.15247-15.224454-70.943644-36.314071-98.3735256-63.268845-27.4298819-26.954774-48.8750579-58.5268-64.3355374-94.71608-15.46047957-36.18928-23.190717-75.248744-23.190717-117.178392z" fill="#1f303a" transform="translate(2344.832 322)"/>
        <path d="m146.625178 252.326633h27.679243c28.926057 0 51.119321-5.98995 66.5798-17.969849 15.46048-11.9799 23.190717-29.201005 23.190717-51.663317 0-22.462311-7.730237-39.683417-23.190717-51.663316-15.460479-11.9799-37.653743-17.969849-66.5798-17.969849h-27.679243zm322.425775 312.226131h-182.533385l-139.89239-217.135679v217.135679h-146.625178v-564.552764h228.166731c31.419682 0 58.849563 4.61725295 82.289641 13.8517588 23.440078 9.2345058 42.765679 21.8383586 57.976793 37.8115578s26.681794 34.442211 34.412031 55.4070354c7.730238 20.964824 11.595359 43.427135 11.595359 67.386934 0 42.927973-10.348544 77.744556-31.045637 104.449749s-51.244004 44.799833-91.640737 54.28392z" fill="#fff" transform="translate(3076.275 337.724)"/>
        <path d="m146.625178 252.326633h27.679243c28.926057 0 51.119321-5.98995 66.5798-17.969849 15.46048-11.9799 23.190717-29.201005 23.190717-51.663317 0-22.462311-7.730237-39.683417-23.190717-51.663316-15.460479-11.9799-37.653743-17.969849-66.5798-17.969849h-27.679243zm322.425775 312.226131h-182.533385l-139.89239-217.135679v217.135679h-146.625178v-564.552764h228.166731c31.419682 0 58.849563 4.61725295 82.289641 13.8517588 23.440078 9.2345058 42.765679 21.8383586 57.976793 37.8115578s26.681794 34.442211 34.412031 55.4070354c7.730238 20.964824 11.595359 43.427135 11.595359 67.386934 0 42.927973-10.348544 77.744556-31.045637 104.449749s-51.244004 44.799833-91.640737 54.28392z" fill="#1f303a" transform="translate(3076.275 337.724)"/>
        <path d="m267.067 124.291v440.262h-146.625v-440.262h-120.442v-124.291h387.509v124.291z" fill="#fff" transform="translate(3568.33 337.724)"/>
        <path d="m267.067 124.291v440.262h-146.625v-440.262h-120.442v-124.291h387.509v124.291z" fill="#1f303a" transform="translate(3568.33 337.724)"/>
        <path d="m146.625 217.884h211.709v-217.884h146.625v564.553h-146.625v-232.86h-211.709v232.86h-146.625v-564.553h146.625z" fill="#fff" transform="translate(4034.95 337.724)"/>
        <path d="m146.625 217.884h211.709v-217.884h146.625v564.553h-146.625v-232.86h-211.709v232.86h-146.625v-564.553h146.625z" fill="#1f303a" transform="translate(4034.95 337.724)"/>
        <path d="m153.358 0 97.251 364.638 119.694-364.638h116.702l119.694 364.638 97.251-364.638h153.358l-168.319 564.553h-149.618l-110.717-327.201-110.717 327.201h-149.617l-168.32-564.553z" fill="#fff" transform="translate(4613.034 337.724)"/>
        <path d="m153.358 0 97.251 364.638 119.694-364.638h116.702l119.694 364.638 97.251-364.638h153.358l-168.319 564.553h-149.618l-110.717-327.201-110.717 327.201h-149.617l-168.32-564.553z" fill="#1f303a" transform="translate(4613.034 337.724)"/>
        <path d="m153.357967 298c0 22.462312 4.239165 43.177555 12.71749 62.145729s19.949005 35.440536 34.412032 49.417085c14.463026 13.97655 31.294998 24.833334 50.495916 32.570352 19.200917 7.737018 39.523962 11.605527 60.969143 11.605527 21.44518 0 41.768225-3.868509 60.969143-11.605527 19.200917-7.737018 36.157568-18.593802 50.869959-32.570352 14.712392-13.976549 26.307751-30.448911 34.786076-49.417085s12.71749-39.683417 12.71749-62.145729-4.239165-43.177555-12.71749-62.145729-20.073684-35.440536-34.786076-49.417085c-14.712391-13.97655-31.669042-24.833334-50.869959-32.570352-19.200918-7.737018-39.523963-11.605527-60.969143-11.605527-21.445181 0-41.768226 3.868509-60.969143 11.605527-19.200918 7.737018-36.03289 18.593802-50.495916 32.570352-14.463027 13.976549-25.933707 30.448911-34.412032 49.417085s-12.71749 39.683417-12.71749 62.145729zm-153.357967 0c0-41.929648 7.73023743-80.989112 23.190717-117.178392 15.4604795-36.18928 36.9056555-67.761306 64.3355374-94.7160804 27.4298816-26.9547738 60.2210556-48.0443886 98.3735256-63.2688442 38.152469-15.22445558 80.17006-22.8366834 126.052768-22.8366834 45.383985 0 87.276893 7.61222782 125.678724 22.8366834 38.401831 15.2244556 71.44237 36.3140704 99.121613 63.2688442 27.679243 26.9547744 49.249101 58.5268004 64.709581 94.7160804s23.190717 75.248744 23.190717 117.178392-7.730237 80.989112-23.190717 117.178392-37.030338 67.761306-64.709581 94.71608-60.719782 48.044391-99.121613 63.268845-80.294739 22.836683-125.678724 22.836683c-45.882708 0-87.900299-7.612229-126.052768-22.836683-38.15247-15.224454-70.943644-36.314071-98.3735256-63.268845-27.4298819-26.954774-48.8750579-58.5268-64.3355374-94.71608-15.46047957-36.18928-23.190717-75.248744-23.190717-117.178392z" fill="#fff" transform="translate(5506.064 322)"/>
        <path d="m153.357967 298c0 22.462312 4.239165 43.177555 12.71749 62.145729s19.949005 35.440536 34.412032 49.417085c14.463026 13.97655 31.294998 24.833334 50.495916 32.570352 19.200917 7.737018 39.523962 11.605527 60.969143 11.605527 21.44518 0 41.768225-3.868509 60.969143-11.605527 19.200917-7.737018 36.157568-18.593802 50.869959-32.570352 14.712392-13.976549 26.307751-30.448911 34.786076-49.417085s12.71749-39.683417 12.71749-62.145729-4.239165-43.177555-12.71749-62.145729-20.073684-35.440536-34.786076-49.417085c-14.712391-13.97655-31.669042-24.833334-50.869959-32.570352-19.200918-7.737018-39.523963-11.605527-60.969143-11.605527-21.445181 0-41.768226 3.868509-60.969143 11.605527-19.200918 7.737018-36.03289 18.593802-50.495916 32.570352-14.463027 13.976549-25.933707 30.448911-34.412032 49.417085s-12.71749 39.683417-12.71749 62.145729zm-153.357967 0c0-41.929648 7.73023743-80.989112 23.190717-117.178392 15.4604795-36.18928 36.9056555-67.761306 64.3355374-94.7160804 27.4298816-26.9547738 60.2210556-48.0443886 98.3735256-63.2688442 38.152469-15.22445558 80.17006-22.8366834 126.052768-22.8366834 45.383985 0 87.276893 7.61222782 125.678724 22.8366834 38.401831 15.2244556 71.44237 36.3140704 99.121613 63.2688442 27.679243 26.9547744 49.249101 58.5268004 64.709581 94.7160804s23.190717 75.248744 23.190717 117.178392-7.730237 80.989112-23.190717 117.178392-37.030338 67.761306-64.709581 94.71608-60.719782 48.044391-99.121613 63.268845-80.294739 22.836683-125.678724 22.836683c-45.882708 0-87.900299-7.612229-126.052768-22.836683-38.15247-15.224454-70.943644-36.314071-98.3735256-63.268845-27.4298819-26.954774-48.8750579-58.5268-64.3355374-94.71608-15.46047957-36.18928-23.190717-75.248744-23.190717-117.178392z" fill="#1f303a" transform="translate(5506.064 322)"/>
        <path d="m153.357967 298c0 22.462312 4.239179 43.177555 12.71749 62.145729s19.949019 35.440536 34.412032 49.417085c14.463012 13.97655 31.294984 24.833334 50.495916 32.570352 19.200931 7.737018 39.523948 11.605527 60.969143 11.605527 21.445194 0 41.768211-3.868509 60.969143-11.605527 19.200931-7.737018 36.157554-18.593802 50.869959-32.570352 14.712406-13.976549 26.307765-30.448911 34.786076-49.417085s12.71749-39.683417 12.71749-62.145729-4.239179-43.177555-12.71749-62.145729-20.07367-35.440536-34.786076-49.417085c-14.712405-13.97655-31.669028-24.833334-50.869959-32.570352-19.200932-7.737018-39.523949-11.605527-60.969143-11.605527-21.445195 0-41.768212 3.868509-60.969143 11.605527-19.200932 7.737018-36.032904 18.593802-50.495916 32.570352-14.463013 13.976549-25.933721 30.448911-34.412032 49.417085s-12.71749 39.683417-12.71749 62.145729zm-153.357967 0c0-41.929648 7.73023743-80.989112 23.190717-117.178392 15.4604795-36.18928 36.9056555-67.761306 64.3355374-94.7160804 27.4298816-26.9547738 60.2210556-48.0443886 98.3735256-63.2688442 38.152469-15.22445558 80.170074-22.8366834 126.052768-22.8366834 45.383999 0 87.276907 7.61222782 125.678724 22.8366834 38.401817 15.2244556 71.44237 36.3140704 99.121613 63.2688442 27.679243 26.9547744 49.249087 58.5268004 64.709581 94.7160804s23.190717 75.248744 23.190717 117.178392-7.730223 80.989112-23.190717 117.178392-37.030338 67.761306-64.709581 94.71608-60.719796 48.044391-99.121613 63.268845-80.294725 22.836683-125.678724 22.836683c-45.882694 0-87.900299-7.612229-126.052768-22.836683-38.15247-15.224454-70.943644-36.314071-98.3735256-63.268845-27.4298819-26.954774-48.8750579-58.5268-64.3355374-94.71608-15.46047957-36.18928-23.190717-75.248744-23.190717-117.178392z" fill="#fff" transform="translate(6212.071 322)"/>
        <path d="m153.357967 298c0 22.462312 4.239179 43.177555 12.71749 62.145729s19.949019 35.440536 34.412032 49.417085c14.463012 13.97655 31.294984 24.833334 50.495916 32.570352 19.200931 7.737018 39.523948 11.605527 60.969143 11.605527 21.445194 0 41.768211-3.868509 60.969143-11.605527 19.200931-7.737018 36.157554-18.593802 50.869959-32.570352 14.712406-13.976549 26.307765-30.448911 34.786076-49.417085s12.71749-39.683417 12.71749-62.145729-4.239179-43.177555-12.71749-62.145729-20.07367-35.440536-34.786076-49.417085c-14.712405-13.97655-31.669028-24.833334-50.869959-32.570352-19.200932-7.737018-39.523949-11.605527-60.969143-11.605527-21.445195 0-41.768212 3.868509-60.969143 11.605527-19.200932 7.737018-36.032904 18.593802-50.495916 32.570352-14.463013 13.976549-25.933721 30.448911-34.412032 49.417085s-12.71749 39.683417-12.71749 62.145729zm-153.357967 0c0-41.929648 7.73023743-80.989112 23.190717-117.178392 15.4604795-36.18928 36.9056555-67.761306 64.3355374-94.7160804 27.4298816-26.9547738 60.2210556-48.0443886 98.3735256-63.2688442 38.152469-15.22445558 80.170074-22.8366834 126.052768-22.8366834 45.383999 0 87.276907 7.61222782 125.678724 22.8366834 38.401817 15.2244556 71.44237 36.3140704 99.121613 63.2688442 27.679243 26.9547744 49.249087 58.5268004 64.709581 94.7160804s23.190717 75.248744 23.190717 117.178392-7.730223 80.989112-23.190717 117.178392-37.030338 67.761306-64.709581 94.71608-60.719796 48.044391-99.121613 63.268845-80.294725 22.836683-125.678724 22.836683c-45.882694 0-87.900299-7.612229-126.052768-22.836683-38.15247-15.224454-70.943644-36.314071-98.3735256-63.268845-27.4298819-26.954774-48.8750579-58.5268-64.3355374-94.71608-15.46047957-36.18928-23.190717-75.248744-23.190717-117.178392z" fill="#1f303a" transform="translate(6212.071 322)"/>
        <g transform="translate(6943.514 337.724)">
            <path d="m146.625178 440.261307h33.663944c25.43498 0 48.126956-3.9933 68.075976-11.9799 19.949019-7.9866 36.780991-18.968174 50.495916-32.944724 13.714924-13.976549 24.188151-30.573701 31.419681-49.791457 7.231529-19.217755 10.847271-40.30737 10.847271-63.268844 0-22.462312-3.740438-43.427136-11.221315-62.894472-7.480876-19.467337-18.0788-36.18928-31.793725-50.16583-13.714924-13.976549-30.546896-24.958123-50.495916-32.944723-19.949019-7.9866-42.391649-11.9799-67.327888-11.9799h-33.663944zm-146.625178-440.261307h216.945417c38.401817 0 74.43472 7.73701841 108.098664 23.2110553 33.663944 15.474037 63.088709 36.0644892 88.274342 61.7713568 25.185633 25.7068679 45.009956 55.6566159 59.472968 89.8492459s21.694542 70.007538 21.694542 107.444724c0 36.938023-7.106833 72.50335-21.320498 106.69598s-33.913291 64.267167-59.098924 90.223618c-25.185633 25.95645-54.610398 46.67169-88.274342 62.145729-33.663944 15.474038-69.946195 23.211055-108.846752 23.211055h-216.945417z" fill="#fff"/>
            <path d="m146.625178 440.261307h33.663944c25.43498 0 48.126956-3.9933 68.075976-11.9799 19.949019-7.9866 36.780991-18.968174 50.495916-32.944724 13.714924-13.976549 24.188151-30.573701 31.419681-49.791457 7.231529-19.217755 10.847271-40.30737 10.847271-63.268844 0-22.462312-3.740438-43.427136-11.221315-62.894472-7.480876-19.467337-18.0788-36.18928-31.793725-50.16583-13.714924-13.976549-30.546896-24.958123-50.495916-32.944723-19.949019-7.9866-42.391649-11.9799-67.327888-11.9799h-33.663944zm-146.625178-440.261307h216.945417c38.401817 0 74.43472 7.73701841 108.098664 23.2110553 33.663944 15.474037 63.088709 36.0644892 88.274342 61.7713568 25.185633 25.7068679 45.009956 55.6566159 59.472968 89.8492459s21.694542 70.007538 21.694542 107.444724c0 36.938023-7.106833 72.50335-21.320498 106.69598s-33.913291 64.267167-59.098924 90.223618c-25.185633 25.95645-54.610398 46.67169-88.274342 62.145729-33.663944 15.474038-69.946195 23.211055-108.846752 23.211055h-216.945417z" fill="#1f303a"/>
        </g>
    </g>
</svg>
