<svg viewBox="0 0 882 1000" width="32" xmlns="http://www.w3.org/2000/svg" xmlns:xlink="http://www.w3.org/1999/xlink"><defs><linearGradient id="a"><stop offset="0" stop-color="#fff" stop-opacity=".5"/><stop offset="1" stop-opacity=".5"/></linearGradient><linearGradient id="b" x1="50%" x2="50%" xlink:href="#a" y1="0%" y2="100%"/><linearGradient id="c" x1="50%" x2="50%" xlink:href="#a" y1="-206.925%" y2="306.694%"/><path id="d" d="m413.28085 27.9255319c7.551053 0 15.099543.7036476 22.64547 2.1109427 7.545926 1.4072952 14.666369 3.356745 21.361329 5.8483496 13.210498 4.3987586 32.618703 11.131474 58.224616 20.198146 25.605912 9.0666721 53.189299 18.8869776 82.750159 29.4609166s57.168596 20.6646812 82.823209 30.2722262c25.654612 9.607545 45.166626 17.120809 58.536039 22.539793 21.161403 9.289686 37.165739 19.762371 48.013009 31.418056 10.847269 11.655685 16.270904 30.628536 16.270904 56.918553v354.046238c0 42.326517-6.288699 79.334022-18.866098 111.022515s-32.764803 61.171198-60.562213 88.448116c-27.79741 27.276917-64.581239 55.29337-110.351487 84.049357-45.770249 28.755987-101.966128 61.513409-168.587638 98.272267-5.941392 3.281125-11.771287 5.691983-17.489684 7.232574-5.718398 1.540591-10.640936 2.310886-14.767615 2.310886-3.798595 0-8.558372-.770295-14.279333-2.310886s-11.549574-3.951449-17.48584-7.232574c-66.354941-37.05621-122.411129-69.962308-168.168562-98.718295-45.757432-28.755987-82.609185-56.77244-110.555258-84.049357-27.9460726-27.276918-48.2154978-56.685285-60.8082756-88.225102-12.5927777-31.539817-18.8891665-68.472984-18.8891665-110.799501v-354.046238c0-26.290017 5.3493033-45.337206 16.0479099-57.141567 10.6986065-11.804361 26.7926532-22.202708 48.2821399-31.195042 13.3386553-5.418984 32.8352903-13.014276 58.4899023-22.785877 25.654613-9.771602 53.270039-20.0840761 82.846278-30.9374235 29.576239-10.8533473 57.159625-20.7467091 82.750159-29.6800855 25.590534-8.9333763 44.991049-15.2892749 58.201547-19.0676958 6.700086-1.86614 13.8295-3.6592238 21.388242-5.3792512 7.558743-1.7200274 14.952162-2.5800411 22.180257-2.5800411zm8.935157 63.7027375v780.5851066c2.907359-.901465 5.896782-2.079101 8.968267-3.532908 3.071484-1.453808 6.52202-3.394823 10.351607-5.823046 54.072723-32.833118 99.423367-60.986956 136.051931-84.461516 36.628565-23.474559 65.934022-45.774087 87.916371-66.898585s37.783953-44.176984 47.404813-69.157458 14.43129-55.226441 14.43129-90.737899v-327.497456c0-8.201766-1.048578-14.351788-3.145732-18.450066-2.097155-4.098277-6.495969-7.330263-13.196444-9.695957-14.448223-5.002347-31.022258-10.873593-49.722104-17.613735-18.699846-6.740143-38.360996-13.789024-58.983451-21.146644s-41.171966-14.750412-61.648532-22.178378c-20.476566-7.427965-39.797743-14.574548-57.963531-21.43975-18.165788-6.865201-33.983023-12.939666-47.451706-18.2233963-2.662474-.9535725-5.026658-1.7377947-7.092551-2.3526666-2.065893-.614872-4.039302-1.0734205-5.920228-1.3756457z"/><path id="e" d="m223.603389 424.383929c-27.708129 0-53.693114-5.201213-77.954958-15.603639-24.261843-10.402426-45.628808-24.83493-64.1008931-43.297513-18.4720854-18.462584-32.9120178-39.853002-43.3197973-64.171255-10.4077794-24.318254-15.6116692-50.255428-15.6116692-77.811522 0-27.693875 5.2038898-53.665494 15.6116692-77.914857 10.4077795-24.249363 24.8477119-45.6053364 43.3197973-64.0679197 18.4720851-18.4625833 39.8390501-32.8950877 64.1008931-43.2975134 24.261844-10.4024256 50.246829-15.6036385 77.954958-15.6036385 27.708128 0 53.658651 5.2012129 77.851568 15.6036385 24.192918 10.4024257 45.52542 24.8349301 63.997505 43.2975134 18.472086 18.4625833 32.912018 39.8185567 43.319797 64.0679197 10.40778 24.249363 15.61167 50.220982 15.61167 77.914857 0 27.556094-5.20389 53.493268-15.61167 77.811522-10.407779 24.318253-24.847711 45.708671-43.319797 64.171255-18.472085 18.462583-39.804587 32.895087-63.997505 43.297513-24.192917 10.402426-50.14344 15.603639-77.851568 15.603639z"/><path id="f" d="m223.5 262.080357c-10.671163 0-19.769013-3.851684-27.293551-11.555051-7.524537-7.703368-11.286806-16.89883-11.286806-27.586385 0-10.826355 3.762269-20.091216 11.286806-27.794584 7.524538-7.703367 16.622388-11.555051 27.293551-11.555051s19.769013 3.851684 27.293551 11.555051c7.524537 7.703368 11.286806 16.968229 11.286806 27.794584 0 10.687555-3.762269 19.883017-11.286806 27.586385-7.524538 7.703367-16.622388 11.555051-27.293551 11.555051z"/></defs><g fill="none"><path d="m0 585.514848v-374.989818c0-27.845201 5.66574095-48.019125 16.9972229-60.521772 11.3314819-12.502647 28.3775707-23.516108 51.1382665-33.040383 14.1277029-5.739543 34.7776586-13.784135 61.9498686-24.1337744 27.172209-10.3496397 56.421224-21.2721477 87.747043-32.767524 31.325819-11.4953764 60.540899-21.9739793 87.645239-31.4358089s47.652492-16.193711 61.644456-20.19564406c7.096429-1.9765314 14.647583-3.87568486 22.653462-5.69746037s15.836656-2.73266327 23.492329-2.73266327c7.997734 0 15.992755.7452718 23.98506 2.2358154s15.533958 3.55531301 22.624957 6.19430824c13.991964 4.65896686 34.54826 11.78995556 61.668889 21.39296596s56.335708 20.0042354 87.645239 31.203675 60.550401 21.8870988 87.72261 32.0629775c27.17221 10.1758789 47.838454 18.1335899 61.998735 23.8731329 22.413204 9.839217 39.364275 20.931413 50.853214 33.276589 11.488939 12.345177 17.233409 32.440365 17.233409 60.285566v374.989818c0 44.830339-6.660707 84.02702-19.982121 117.590044s-34.703003 64.789776-64.144766 93.680258c-29.441764 28.890482-68.401538 58.564245-116.879322 89.021291-48.477785 30.457046-107.997927 65.152231-178.560428 104.085556-6.292854 3.47522-12.467616 6.028692-18.524285 7.660416-6.056669 1.631725-11.270399 2.447587-15.641191 2.447587-4.023301 0-9.064643-.815862-15.124027-2.447587-6.059383-1.631724-12.232788-4.185196-18.520213-7.660416-70.280164-39.248267-129.652351-74.100923-178.116561-104.557969-48.464211-30.457045-87.495927-60.130809-117.0951472-89.021291-29.5992207-28.890481-51.0676823-60.038499-64.4053849-93.444051-13.33770261-33.405553-20.0065539-72.523499-20.0065539-117.353838z" fill="#fff"/><use fill="#00f" xlink:href="#d"/><use fill="url(#b)" xlink:href="#d"/><g transform="translate(435 546)"><path d="m223.615028 447c-30.827586 0-59.738034-5.78678-86.731343-17.36034-26.993309-11.573559-50.765826-27.630915-71.3175502-48.172067-20.5517241-20.541153-36.6173443-44.339764-48.1968605-71.395834-11.57951619-27.05607-17.3692743-55.913323-17.3692743-86.571759 0-30.811728 5.78975811-59.707305 17.3692743-86.686728 11.5795162-26.979424 27.6451364-50.7397123 48.1968605-71.2808646 20.5517242-20.5411523 44.3242412-36.5985082 71.3175502-48.1720679 26.993309-11.57355966 55.903757-17.3603395 86.731343-17.3603395 30.827587 0 59.699692 5.78677984 86.616315 17.3603395 26.916624 11.5735597 50.650798 27.6309156 71.202522 48.1720679s36.617344 44.3014406 48.196861 71.2808646c11.579516 26.979423 17.369274 55.875 17.369274 86.686728 0 30.658436-5.789758 59.515689-17.369274 86.571759-11.579517 27.05607-27.645137 50.854681-48.196861 71.395834-20.551724 20.541152-44.285898 36.598508-71.202522 48.172067-26.916623 11.57356-55.788728 17.36034-86.616315 17.36034z" fill="#fff"/><use fill="#00f" xlink:href="#e"/><use fill="url(#b)" xlink:href="#e"/><path d="m212.421153 340.571429h20.621125c2.886958 0 5.395861-.859214 7.526711-2.577641 2.130849-1.718427 3.53996-4.021119 4.22733-6.908077l5.773915-24.332927c2.062113-.549897 4.089857-1.202899 6.083232-1.959007 1.993376-.756108 3.814908-1.615322 5.464598-2.577641l21.033548 12.991309c2.474535 1.374742 5.052175 1.993375 7.732922 1.855901 2.680746-.137474 5.120912-1.237267 7.320499-3.29938l14.022365-14.022365c2.199586-2.337061 3.436854-4.880333 3.711802-7.629816.274949-2.749483-.481159-5.361492-2.268323-7.836027l-12.578887-21.033548c.824845-1.787164 1.615322-3.643065 2.37143-5.567703.756108-1.924639 1.40911-3.78054 1.959007-5.567704l24.332927-5.773915c6.323812-1.374742 9.485717-5.292756 9.485717-11.754041v-20.002492c0-3.024431-.824845-5.602072-2.474535-7.732921-1.64969-2.13085-3.98675-3.53996-7.011182-4.227331l-24.126716-5.773915c-.687371-2.062112-1.443479-4.055488-2.268324-5.980126s-1.512216-3.643066-2.062112-5.155281l12.578886-21.239759c3.574328-5.911389 3.161906-10.997933-1.237268-15.259632l-14.640998-14.228577c-4.536648-4.261699-9.416981-4.811595-14.640999-1.64969l-21.239759 13.19752c-1.64969-.824845-3.436854-1.64969-5.361492-2.474535s-3.986751-1.64969-6.186338-2.474535l-5.773915-24.126716c-.68737-2.886957-2.096481-5.224018-4.22733-7.011182-2.13085-1.787164-4.639753-2.680746-7.526711-2.680746h-20.621125c-6.323811 0-10.173088 3.230642-11.54783 9.691928l-5.980126 24.126716c-1.924638.687371-3.883645 1.409111-5.87702 2.165219-1.993376.756107-3.883646 1.684058-5.67081 2.783851l-21.239758-13.19752c-5.224019-3.29938-10.173089-2.749483-14.84721 1.64969l-14.228576 14.228577c-4.399174 4.261699-4.880333 9.348243-1.443479 15.259632l12.785097 21.239759c-.687371 1.512215-1.443479 3.230643-2.268324 5.155281s-1.580952 3.918014-2.268323 5.980126l-23.920505 5.773915c-3.024432.687371-5.361493 2.096481-7.011183 4.227331-1.64969 2.130849-2.474535 4.70849-2.474535 7.732921v20.002492c0 6.461285 3.161906 10.379299 9.485718 11.754041l24.126716 5.773915c.687371 1.787164 1.374742 3.643065 2.062112 5.567704.687371 1.924638 1.512216 3.780539 2.474535 5.567703l-12.785097 21.033548c-1.787164 2.474535-2.543272 5.086544-2.268324 7.836027.274949 2.749483 1.512216 5.292755 3.711803 7.629816l14.022365 14.022365c2.199586 2.062113 4.674121 3.161906 7.423605 3.29938 2.749483.137474 5.292755-.481159 7.629816-1.855901l21.239759-12.991309c1.64969.962319 3.471222 1.821533 5.464598 2.577641 1.993375.756108 3.952382 1.40911 5.87702 1.959007l5.980126 24.332927c.549897 2.886958 1.89027 5.18965 4.02112 6.908077 2.130849 1.718427 4.639753 2.577641 7.52671 2.577641z" fill="#fff"/><use fill="#00f" xlink:href="#f"/><use fill="url(#c)" xlink:href="#f"/></g></g></svg>
