<svg viewBox="0 0 117 130" xmlns="http://www.w3.org/2000/svg" xmlns:xlink="http://www.w3.org/1999/xlink"><defs><linearGradient id="a" x1="50%" x2="50%" y1="0%" y2="100%"><stop offset="0" stop-color="#fff" stop-opacity=".5"/><stop offset="1" stop-opacity=".5"/></linearGradient><path id="b" d="m0 73.1893561v-46.8737274c0-3.4806501.71249947-6.0023906 2.1374984-7.5652214 1.42499893-1.5628309 3.56864251-2.9395136 6.43093074-4.1300479 1.77663976-.7174429 4.37349036-1.7230169 7.79055176-3.0167218 3.4170614-1.293705 7.095293-2.65901849 11.0346947-4.09594053s7.6133658-2.74674741 11.0218922-3.92947611 5.9925746-2.02421387 7.7521444-2.5244555c.8924167-.24706643 1.8420177-.48446061 2.848803-.71218255s1.9915503-.34158291 2.9542952-.34158291c1.0057611 0 2.0111808.09315898 3.0162591.27947693s1.9534844.44441412 2.8452183.77428853c1.7595698.58237086 4.3446422 1.47374444 7.755217 2.67412074s7.0845389 2.50052943 11.0218922 3.90045938 7.6145607 2.73588732 11.0316221 4.00787222c3.4170614 1.2719848 6.0159604 2.2666987 7.7966969 2.9841416 2.8185892 1.2299021 4.950284 2.6164266 6.395084 4.1595736 1.4448 1.5431471 2.1672 4.0550456 2.1672 7.5356957v46.8737274c0 5.6037923-.837622 10.5033774-2.512866 14.6987554-1.6752448 4.1953779-4.3641024 8.098722-8.0665733 11.7100322-3.7024708 3.6113103-8.6018862 7.3205303-14.698246 11.1276613-6.0963599 3.807131-13.5813596 8.144029-22.4549994 13.010695-.7913626.434402-1.5678743.753586-2.3295352.957552-.761661.203965-1.4173175.305948-1.9669697.305948-.5059531 0-1.1399309-.101983-1.9019332-.305948-.7620023-.203966-1.5383433-.52315-2.3290231-.957552-8.8381343-4.906034-16.3045279-9.262616-22.3991807-13.069746-6.0946528-3.807131-11.0031153-7.516352-14.7253873-11.1276618-3.72227197-3.6113103-6.42205433-7.5048124-8.09934704-11.6805065s-2.51593906-9.0654373-2.51593906-14.6692296z"/><path id="c" d="m51.4949528 111.778954c.3872453-.119349.7854208-.275261 1.1945267-.467737.4091058-.192476.8686993-.449456 1.3787804-.770939 7.2022064-4.346919 13.2426771-8.074329 18.121412-11.1822284s8.7820698-6.0602313 11.7100047-8.8569958 5.0326267-5.8487838 6.3140754-9.1560579c1.2814486-3.307274 1.922173-7.3116696 1.922173-12.0131866v-43.3588181c0-1.0858677-.1396651-1.9000959-.4189952-2.4426848-.2793302-.5425888-.8652294-.9704855-1.7576979-1.28369-1.9244284-.6622827-4.1320039-1.4396025-6.6227265-2.3319594-2.4907225-.8923569-5.1094858-1.825589-7.8562899-2.7996965-2.7468041-.9741074-5.4838924-1.9528715-8.2112648-2.9362922-2.7273724-.9834208-5.3008531-1.9295882-7.7204419-2.8385021-2.4195887-.908914-4.5263625-1.71313903-6.3203212-2.4126751-.3546278-.12624763-.6695248-.23007423-.944691-.31147981s-.5380142-.14211482-.7885438-.18212773z"/><path id="d" d="m30.0506264 58.9860079h4.676388c.6546944 0 1.2236549-.1948495 1.7068817-.5845485.4832267-.389699.8027799-.9118957.9586595-1.56659l1.3093886-5.5181378c.4676388-.1247037.9274837-.2727893 1.3795345-.4442569.4520509-.1714675.8651318-.366317 1.2392428-.5845485l4.7699158 2.9461245c.5611666.3117592 1.1457151.4520508 1.7536455.4208749s1.161303-.2805833 1.6601177-.7482221l3.1799439-3.1799438c.4988147-.5299907.779398-1.1067452.8417498-1.7302636.0623519-.6235184-.1091157-1.2158609-.5144027-1.7770274l-2.8525966-4.7699158c.1870555-.405287.366317-.8261619.5377846-1.2626248.1714675-.4364629.3195532-.8573378.4442568-1.2626247l5.5181379-1.3093887c1.4340923-.3117592 2.1511385-1.2002729 2.1511385-2.6655411v-4.5360964c0-.6858702-.1870555-1.2704187-.5611666-1.7536455-.374111-.4832268-.9041017-.8027799-1.5899719-.9586595l-5.471374-1.3093887c-.1558796-.4676388-.3273471-.9196896-.5144027-1.3561525-.1870555-.4364629-.3429351-.8261619-.4676388-1.169097l2.8525967-4.8166797c.8105739-1.3405645.7170462-2.4940736-.2805833-3.4605271l-3.3202354-3.2267077c-1.0288054-.9664535-2.1355506-1.0911572-3.3202355-.374111l-4.8166797 2.9928883c-.374111-.1870555-.779398-.3741111-1.2158609-.5611666-.4364628-.1870555-.9041016-.374111-1.4029164-.5611665l-1.3093886-5.47137401c-.1558796-.65469432-.4754328-1.18468496-.9586595-1.58997192-.4832268-.40528696-1.0521873-.60793044-1.7068817-.60793044h-4.676388c-1.4340923 0-2.307018.73263412-2.6187772 2.19790236l-1.3561526 5.47137401c-.4364628.1558796-.8807197.3195531-1.3327705.4910207-.4520509.1714676-.8807198.381905-1.2860067.6313124l-4.8166797-2.9928883c-1.184685-.7482221-2.3070181-.6235184-3.3669994.374111l-3.2267077 3.2267077c-.9976294.9664535-1.1067451 2.1199626-.3273471 3.4605271l2.8993605 4.8166797c-.1558796.3429351-.3273471.7326341-.5144027 1.169097-.1870555.4364629-.358523.8885137-.5144026 1.3561525l-5.42461013 1.3093887c-.68587024.1558796-1.21586088.4754327-1.58997192.9586595s-.56116656 1.0677753-.56116656 1.7536455v4.5360964c0 1.4652682.71704616 2.3537819 2.15113848 2.6655411l5.47137393 1.3093887c.1558796.4052869.3117592.8261618.4676388 1.2626247s.3429352.8573378.5611666 1.2626248l-2.8993606 4.7699158c-.4052869.5611665-.5767545 1.153509-.5144026 1.7770274.0623518.6235184.3429351 1.2002729.8417498 1.7302636l3.1799438 3.1799438c.4988148.4676388 1.0599813.7170462 1.6834997.7482221s1.2002729-.1091157 1.7302636-.4208749l4.8166796-2.9461245c.3741111.2182315.787192.413081 1.2392429.5845485.4520508.1714676.8963077.3195532 1.3327705.4442569l1.3561526 5.5181378c.1247036.6546943.4286689 1.176891.9118956 1.56659.4832268.389699 1.0521873.5845485 1.7068816.5845485z"/></defs><g fill="none"><use fill="#00f" xlink:href="#b"/><use fill="url(#a)" xlink:href="#b"/><use fill="#fff" xlink:href="#c"/><use fill="none" xlink:href="#c"/><g transform="translate(52 65)"><path d="m32.5167267 65c-4.4827586 0-8.6867387-.8414781-12.6119403-2.5244342s-7.3820552-4.0179183-10.37056098-7.0048868c-2.98850574-2.9869684-5.32466975-6.4476166-7.00849202-10.3819444-1.68382227-3.9343279-2.5257334-8.1305727-2.5257334-12.5887346 0-4.4804527.84191113-8.6822702 2.5257334-12.6054527 1.68382227-3.9231824 4.01998628-7.3782579 7.00849202-10.36522631 2.98850578-2.98696845 6.44535938-5.32193073 10.37056098-7.00488683 3.9252016-1.68295611 8.1291817-2.52443416 12.6119403-2.52443416s8.6811632.84147805 12.5952136 2.52443416c3.9140504 1.6829561 7.3653285 4.01791838 10.3538343 7.00488683 2.9885057 2.98696841 5.3246697 6.44204391 7.008492 10.36522631 1.6838223 3.9231825 2.5257334 8.125 2.5257334 12.6054527 0 4.4581619-.8419111 8.6544067-2.5257334 12.5887346-1.6838223 3.9343278-4.0199863 7.394976-7.008492 10.3819444-2.9885058 2.9869685-6.4397839 5.3219307-10.3538343 7.0048868s-8.112455 2.5244342-12.5952136 2.5244342z" fill="#fff"/><use fill="#00f" xlink:href="#d"/><use fill="url(#a)" xlink:href="#d"/><path d="m32.5630493 41.1860718c-2.4199697 0-4.4831489-.8734716-6.1895378-2.620415-1.7063889-1.7469433-2.5595833-3.8322585-2.5595833-6.2559457 0-2.4551636.8531944-4.556217 2.5595833-6.3031604 1.7063889-1.7469433 3.7695681-2.620415 6.1895378-2.620415s4.4831489.8734717 6.1895378 2.620415c1.7063889 1.7469434 2.5595833 3.8479968 2.5595833 6.3031604 0 2.4236872-.8531944 4.5090024-2.5595833 6.2559457-1.7063889 1.7469434-3.7695681 2.620415-6.1895378 2.620415z" fill="#fff"/></g></g></svg>
